# xmcd
#
# Track frame offsets:
#	150
#	21730
#	39527
#	54757
#	70552
#	86182
#	109145
#	122355
#	137232
#	156125
#	172460
#	190705
#	206242
#
# Disc length: 2982 seconds
#
# Revision: 0
# Processed by: cddbd v1.4PL0 Copyright (c) Steve Scherf et al.
# Submitted via: dBpowerAMP V4.0
#
DISCID=bb0ba40d
DTITLE=Trova Camagüeyana - Camagüey
DYEAR=1900
DGENRE=Latin
TTITLE0=Son del Borracho
TTITLE1=A casa de Don Ramon
TTITLE2=Frutas del Caney
TTITLE3=Cielo y Sol
TTITLE4=El Dulcero
TTITLE5=Silencio
TTITLE6=Dolor Pasado
TTITLE7=Zun-Zun Paloma
TTITLE8=El Bazar
TTITLE9=Muero Vivo
TTITLE10=Penicilina
TTITLE11=Me Voy Contigo
TTITLE12=El Cuarto de Tula
EXTD=
EXTT0=
EXTT1=
EXTT2=
EXTT3=
EXTT4=
EXTT5=
EXTT6=
EXTT7=
EXTT8=
EXTT9=
EXTT10=
EXTT11=
EXTT12=
PLAYORDER=
